<svg version="1.1" viewBox="0.0 0.0 314.0524934383202 172.15748031496062" fill="none" stroke="none" stroke-linecap="square" stroke-miterlimit="10" xmlns:xlink="http://www.w3.org/1999/xlink" xmlns="http://www.w3.org/2000/svg"><clipPath id="p.0"><path d="m0 0l314.0525 0l0 172.15749l-314.0525 0l0 -172.15749z" clip-rule="nonzero"/></clipPath><g clip-path="url(#p.0)"><path fill="#000000" fill-opacity="0.0" d="m0 0l314.0525 0l0 172.15749l-314.0525 0z" fill-rule="evenodd"/><path fill="#000000" fill-opacity="0.0" d="m94.11024 23.025372l166.92914 0l0 63.937008l-166.92914 0z" fill-rule="evenodd"/><path fill="#000000" d="m98.55113 74.00239l18.546875 -42.0l11.703125 0l18.59375 42.0l-12.359375 0l-14.515625 -36.1875l4.671875 0l-14.515625 36.1875l-12.125 0zm10.140625 -8.15625l3.0625 -8.765625l20.515625 0l3.0625 8.765625l-26.640625 0zm57.12558 20.34375q-4.6875 0 -8.921875 -1.09375q-4.21875 -1.078125 -7.21875 -3.171875l4.140625 -7.984375q2.03125 1.625 5.0625 2.546875q3.03125 0.9375 5.921875 0.9375q4.609375 0 6.640625 -2.015625q2.046875 -2.0 2.046875 -5.84375l0 -3.84375l0.609375 -9.125l-0.0625 -9.171875l0 -5.9375l10.859375 0l0 26.578125q0 9.234375 -4.984375 13.671875q-4.96875 4.453125 -14.09375 4.453125zm-1.984375 -13.875q-4.3125 0 -7.953125 -1.9375q-3.625 -1.953125 -5.8125 -5.453125q-2.1875 -3.515625 -2.1875 -8.328125q0 -4.796875 2.1875 -8.296875q2.1875 -3.515625 5.8125 -5.4375q3.640625 -1.921875 7.953125 -1.921875q4.140625 0 7.078125 1.65625q2.9375 1.640625 4.46875 5.125q1.53125 3.484375 1.53125 8.875q0 5.40625 -1.53125 8.890625q-1.53125 3.46875 -4.46875 5.15625q-2.9375 1.671875 -7.078125 1.671875zm2.703125 -9.046875q2.03125 0 3.625 -0.84375q1.59375 -0.84375 2.515625 -2.34375q0.9375 -1.5 0.9375 -3.484375q0 -1.96875 -0.9375 -3.46875q-0.921875 -1.5 -2.515625 -2.3125q-1.59375 -0.8125 -3.625 -0.8125q-2.046875 0 -3.671875 0.8125q-1.609375 0.8125 -2.546875 2.3125q-0.921875 1.5 -0.921875 3.46875q0 1.984375 0.921875 3.484375q0.9375 1.5 2.546875 2.34375q1.625 0.84375 3.671875 0.84375zm24.893707 -1.984375l0 -8.765625l17.53125 0l0 8.765625l-17.53125 0zm45.665604 13.5625q-4.984375 0 -9.21875 -1.59375q-4.21875 -1.59375 -7.3125 -4.53125q-3.09375 -2.9375 -4.828125 -6.921875q-1.734375 -4.0 -1.734375 -8.796875q0 -4.796875 1.734375 -8.78125q1.734375 -4.0 4.828125 -6.9375q3.09375 -2.9375 7.3125 -4.53125q4.234375 -1.59375 9.21875 -1.59375q5.8125 0 10.40625 2.046875q4.59375 2.03125 7.65625 5.875l-7.5625 6.84375q-2.046875 -2.40625 -4.484375 -3.65625q-2.421875 -1.265625 -5.421875 -1.265625q-2.578125 0 -4.734375 0.84375q-2.15625 0.84375 -3.6875 2.4375q-1.53125 1.578125 -2.40625 3.796875q-0.859375 2.21875 -0.859375 4.921875q0 2.703125 0.859375 4.921875q0.875 2.21875 2.40625 3.8125q1.53125 1.578125 3.6875 2.421875q2.15625 0.84375 4.734375 0.84375q3.0 0 5.421875 -1.25q2.4375 -1.265625 4.484375 -3.671875l7.5625 6.84375q-3.0625 3.78125 -7.65625 5.859375q-4.59375 2.0625 -10.40625 2.0625z" fill-rule="nonzero"/><path fill="#000000" fill-opacity="0.0" d="m1.2467191 94.62934l311.55908 0l0 74.2992l-311.55908 0z" fill-rule="evenodd"/><path fill="#000000" d="m4.6735535 115.36533l7.6875 -16.796875l1.75 0l7.671875 16.796875l-1.875 0l-7.046875 -15.765625l0.71875 0l-7.0625 15.765625l-1.84375 0zm3.03125 -4.484375l0.515625 -1.4375l9.78125 0l0.515625 1.4375l-10.8125 0zm21.759827 9.265625q-1.71875 0 -3.3125 -0.515625q-1.578125 -0.5 -2.5625 -1.4375l0.859375 -1.296875q0.890625 0.796875 2.1875 1.265625q1.3125 0.46875 2.78125 0.46875q2.40625 0 3.53125 -1.125q1.125 -1.109375 1.125 -3.453125l0 -3.15625l0.234375 -2.15625l-0.15625 -2.15625l0 -3.8125l1.625 0l0 11.0625q0 3.265625 -1.59375 4.78125q-1.59375 1.53125 -4.71875 1.53125zm-0.3125 -5.265625q-1.796875 0 -3.234375 -0.78125q-1.4375 -0.78125 -2.265625 -2.171875q-0.828125 -1.390625 -0.828125 -3.1875q0 -1.796875 0.828125 -3.171875q0.828125 -1.390625 2.265625 -2.15625q1.4375 -0.765625 3.234375 -0.765625q1.6875 0 3.03125 0.703125q1.34375 0.6875 2.125 2.0625q0.796875 1.359375 0.796875 3.328125q0 1.96875 -0.796875 3.34375q-0.78125 1.359375 -2.125 2.078125q-1.34375 0.71875 -3.03125 0.71875zm0.171875 -1.5q1.390625 0 2.46875 -0.59375q1.078125 -0.59375 1.703125 -1.625q0.625 -1.046875 0.625 -2.421875q0 -1.359375 -0.625 -2.390625q-0.625 -1.046875 -1.703125 -1.625q-1.078125 -0.59375 -2.46875 -0.59375q-1.375 0 -2.46875 0.59375q-1.078125 0.578125 -1.703125 1.625q-0.609375 1.03125 -0.609375 2.390625q0 1.375 0.609375 2.421875q0.625 1.03125 1.703125 1.625q1.09375 0.59375 2.46875 0.59375zm11.205582 1.984375l0 -12.59375l1.640625 0l0 3.421875l-0.171875 -0.59375q0.53125 -1.4375 1.765625 -2.1875q1.25 -0.765625 3.109375 -0.765625l0 1.65625q-0.109375 0 -0.203125 -0.015625q-0.09375 -0.015625 -0.1875 -0.015625q-1.984375 0 -3.125 1.21875q-1.125 1.21875 -1.125 3.4375l0 6.4375l-1.703125 0zm9.431976 0l0 -12.59375l1.703125 0l0 12.59375l-1.703125 0zm0.875 -15.390625q-0.53125 0 -0.890625 -0.359375q-0.359375 -0.359375 -0.359375 -0.859375q0 -0.5 0.359375 -0.84375q0.359375 -0.359375 0.890625 -0.359375q0.53125 0 0.890625 0.34375q0.359375 0.328125 0.359375 0.84375q0 0.515625 -0.359375 0.875q-0.34375 0.359375 -0.890625 0.359375zm10.815353 15.515625q-1.875 0 -3.359375 -0.828125q-1.46875 -0.828125 -2.3125 -2.28125q-0.828125 -1.453125 -0.828125 -3.328125q0 -1.890625 0.828125 -3.328125q0.84375 -1.453125 2.3125 -2.265625q1.484375 -0.8125 3.359375 -0.8125q1.609375 0 2.90625 0.625q1.296875 0.625 2.03125 1.875l-1.265625 0.859375q-0.65625 -0.953125 -1.609375 -1.40625q-0.953125 -0.46875 -2.09375 -0.46875q-1.34375 0 -2.421875 0.609375q-1.078125 0.609375 -1.703125 1.71875q-0.625 1.109375 -0.625 2.59375q0 1.484375 0.625 2.59375q0.625 1.109375 1.703125 1.71875q1.078125 0.609375 2.421875 0.609375q1.140625 0 2.09375 -0.453125q0.953125 -0.453125 1.609375 -1.390625l1.265625 0.859375q-0.734375 1.21875 -2.03125 1.859375q-1.296875 0.640625 -2.90625 0.640625zm13.480713 0q-1.609375 0 -2.8125 -0.59375q-1.1875 -0.609375 -1.859375 -1.8125q-0.65625 -1.203125 -0.65625 -3.0l0 -7.3125l1.703125 0l0 7.125q0 2.015625 1.0 3.03125q1.0 1.015625 2.796875 1.015625q1.328125 0 2.296875 -0.53125q0.96875 -0.546875 1.484375 -1.578125q0.515625 -1.03125 0.515625 -2.46875l0 -6.59375l1.703125 0l0 12.59375l-1.625 0l0 -3.453125l0.265625 0.625q-0.609375 1.390625 -1.875 2.171875q-1.25 0.78125 -2.9375 0.78125zm10.924835 -0.125l0 -17.8125l1.703125 0l0 17.8125l-1.703125 0zm10.22435 0.125q-1.78125 0 -2.75 -0.953125q-0.953125 -0.96875 -0.953125 -2.71875l0 -11.84375l1.71875 0l0 11.75q0 1.09375 0.5625 1.703125q0.5625 0.59375 1.609375 0.59375q1.140625 0 1.875 -0.640625l0.609375 1.21875q-0.515625 0.453125 -1.21875 0.671875q-0.703125 0.21875 -1.453125 0.21875zm-5.953125 -11.3125l0 -1.40625l7.796875 0l0 1.40625l-7.796875 0zm16.915848 11.3125q-1.609375 0 -2.8125 -0.59375q-1.1875 -0.609375 -1.859375 -1.8125q-0.65625 -1.203125 -0.65625 -3.0l0 -7.3125l1.703125 0l0 7.125q0 2.015625 1.0 3.03125q1.0 1.015625 2.796875 1.015625q1.328125 0 2.296875 -0.53125q0.96875 -0.546875 1.484375 -1.578125q0.515625 -1.03125 0.515625 -2.46875l0 -6.59375l1.703125 0l0 12.59375l-1.625 0l0 -3.453125l0.265625 0.625q-0.609375 1.390625 -1.875 2.171875q-1.25 0.78125 -2.9375 0.78125zm10.924835 -0.125l0 -12.59375l1.640625 0l0 3.421875l-0.171875 -0.59375q0.53125 -1.4375 1.765625 -2.1875q1.25 -0.765625 3.109375 -0.765625l0 1.65625q-0.109375 0 -0.203125 -0.015625q-0.09375 -0.015625 -0.1875 -0.015625q-1.984375 0 -3.125 1.21875q-1.125 1.21875 -1.125 3.4375l0 6.4375l-1.703125 0zm16.53061 0l0 -2.78125l-0.0625 -0.453125l0 -4.65625q0 -1.609375 -0.90625 -2.46875q-0.890625 -0.875 -2.671875 -0.875q-1.21875 0 -2.328125 0.40625q-1.109375 0.40625 -1.875 1.078125l-0.765625 -1.265625q0.953125 -0.8125 2.296875 -1.25q1.34375 -0.453125 2.84375 -0.453125q2.4375 0 3.765625 1.21875q1.34375 1.203125 1.34375 3.671875l0 7.828125l-1.640625 0zm-4.34375 0.125q-1.40625 0 -2.453125 -0.46875q-1.046875 -0.46875 -1.609375 -1.296875q-0.546875 -0.828125 -0.546875 -1.90625q0 -0.984375 0.46875 -1.78125q0.46875 -0.8125 1.53125 -1.296875q1.078125 -0.5 2.875 -0.5l4.34375 0l0 1.265625l-4.296875 0q-1.8125 0 -2.53125 0.65625q-0.703125 0.640625 -0.703125 1.609375q0 1.078125 0.84375 1.734375q0.84375 0.640625 2.34375 0.640625q1.4375 0 2.484375 -0.65625q1.046875 -0.671875 1.53125 -1.921875l0.375 1.1875q-0.46875 1.234375 -1.65625 1.984375q-1.1875 0.75 -3.0 0.75zm10.613083 -0.125l0 -17.8125l1.703125 0l0 17.8125l-1.703125 0zm20.400208 0.140625q-1.890625 0 -3.5 -0.625q-1.609375 -0.640625 -2.796875 -1.796875q-1.171875 -1.15625 -1.828125 -2.703125q-0.65625 -1.5625 -0.65625 -3.421875q0 -1.84375 0.65625 -3.40625q0.65625 -1.5625 1.84375 -2.703125q1.1875 -1.15625 2.796875 -1.78125q1.609375 -0.640625 3.515625 -0.640625q1.8125 0 3.421875 0.609375q1.609375 0.609375 2.71875 1.828125l-1.125 1.125q-1.03125 -1.046875 -2.28125 -1.515625q-1.25 -0.46875 -2.6875 -0.46875q-1.515625 0 -2.8125 0.515625q-1.296875 0.515625 -2.265625 1.46875q-0.953125 0.9375 -1.5 2.203125q-0.53125 1.265625 -0.53125 2.765625q0 1.515625 0.53125 2.78125q0.546875 1.25 1.5 2.203125q0.96875 0.953125 2.265625 1.46875q1.296875 0.515625 2.8125 0.515625q1.4375 0 2.6875 -0.484375q1.25 -0.484375 2.28125 -1.53125l1.125 1.125q-1.109375 1.21875 -2.71875 1.84375q-1.609375 0.625 -3.453125 0.625zm13.9483185 -0.015625q-1.828125 0 -3.28125 -0.828125q-1.453125 -0.828125 -2.296875 -2.28125q-0.828125 -1.453125 -0.828125 -3.328125q0 -1.890625 0.828125 -3.328125q0.84375 -1.453125 2.28125 -2.265625q1.4375 -0.8125 3.296875 -0.8125q1.875 0 3.3125 0.8125q1.453125 0.8125 2.28125 2.265625q0.828125 1.4375 0.828125 3.328125q0 1.875 -0.828125 3.328125q-0.828125 1.453125 -2.296875 2.28125q-1.453125 0.828125 -3.296875 0.828125zm0 -1.515625q1.359375 0 2.40625 -0.609375q1.0625 -0.609375 1.671875 -1.71875q0.625 -1.125 0.625 -2.59375q0 -1.484375 -0.625 -2.59375q-0.609375 -1.109375 -1.671875 -1.71875q-1.046875 -0.609375 -2.390625 -0.609375q-1.34375 0 -2.40625 0.609375q-1.046875 0.609375 -1.671875 1.71875q-0.625 1.109375 -0.625 2.59375q0 1.46875 0.625 2.59375q0.625 1.109375 1.671875 1.71875q1.0625 0.609375 2.390625 0.609375zm9.907333 1.390625l0 -12.59375l1.640625 0l0 3.453125l-0.265625 -0.65625q0.59375 -1.359375 1.90625 -2.140625q1.328125 -0.78125 3.15625 -0.78125q1.53125 0 2.6875 0.59375q1.171875 0.578125 1.828125 1.78125q0.65625 1.203125 0.65625 3.03125l0 7.3125l-1.703125 0l0 -7.15625q0 -1.984375 -1.0 -3.0q-0.984375 -1.03125 -2.78125 -1.03125q-1.34375 0 -2.34375 0.546875q-1.0 0.53125 -1.546875 1.5625q-0.53125 1.015625 -0.53125 2.453125l0 6.625l-1.703125 0zm19.614578 0.125q-1.5625 0 -2.953125 -0.4375q-1.390625 -0.453125 -2.1875 -1.125l0.765625 -1.34375q0.765625 0.578125 1.96875 1.0q1.203125 0.40625 2.515625 0.40625q1.8125 0 2.59375 -0.5625q0.796875 -0.5625 0.796875 -1.5q0 -0.6875 -0.453125 -1.078125q-0.4375 -0.40625 -1.15625 -0.609375q-0.71875 -0.203125 -1.609375 -0.34375q-0.890625 -0.140625 -1.765625 -0.328125q-0.875 -0.203125 -1.59375 -0.578125q-0.71875 -0.375 -1.171875 -1.015625q-0.4375 -0.65625 -0.4375 -1.734375q0 -1.03125 0.578125 -1.84375q0.578125 -0.8125 1.6875 -1.28125q1.125 -0.46875 2.734375 -0.46875q1.21875 0 2.4375 0.328125q1.234375 0.3125 2.015625 0.84375l-0.734375 1.375q-0.84375 -0.578125 -1.8125 -0.828125q-0.953125 -0.25 -1.90625 -0.25q-1.703125 0 -2.515625 0.59375q-0.796875 0.578125 -0.796875 1.484375q0 0.71875 0.4375 1.140625q0.4375 0.40625 1.171875 0.640625q0.734375 0.21875 1.609375 0.359375q0.875 0.140625 1.75 0.34375q0.875 0.203125 1.609375 0.5625q0.734375 0.34375 1.171875 0.984375q0.453125 0.625 0.453125 1.65625q0 1.109375 -0.609375 1.921875q-0.609375 0.796875 -1.78125 1.25q-1.15625 0.4375 -2.8125 0.4375zm13.68071 0q-1.96875 0 -3.46875 -0.828125q-1.484375 -0.828125 -2.328125 -2.28125q-0.828125 -1.453125 -0.828125 -3.328125q0 -1.875 0.796875 -3.3125q0.8125 -1.4375 2.203125 -2.265625q1.40625 -0.828125 3.15625 -0.828125q1.78125 0 3.15625 0.8125q1.390625 0.796875 2.171875 2.25q0.796875 1.453125 0.796875 3.34375q0 0.125 -0.015625 0.265625q0 0.125 0 0.265625l-10.96875 0l0 -1.28125l10.046875 0l-0.671875 0.515625q0 -1.375 -0.59375 -2.4375q-0.578125 -1.078125 -1.59375 -1.671875q-1.0 -0.59375 -2.328125 -0.59375q-1.296875 0 -2.328125 0.59375q-1.03125 0.59375 -1.609375 1.6875q-0.5625 1.078125 -0.5625 2.46875l0 0.265625q0 1.4375 0.625 2.53125q0.640625 1.09375 1.78125 1.703125q1.140625 0.609375 2.609375 0.609375q1.140625 0 2.140625 -0.40625q1.0 -0.40625 1.71875 -1.25l0.953125 1.109375q-0.828125 1.0 -2.09375 1.53125q-1.265625 0.53125 -2.765625 0.53125zm9.136581 -0.125l0 -12.59375l1.640625 0l0 3.421875l-0.171875 -0.59375q0.53125 -1.4375 1.765625 -2.1875q1.25 -0.765625 3.109375 -0.765625l0 1.65625q-0.109375 0 -0.203125 -0.015625q-0.09375 -0.015625 -0.1875 -0.015625q-1.984375 0 -3.125 1.21875q-1.125 1.21875 -1.125 3.4375l0 6.4375l-1.703125 0zm13.218353 0l-5.578125 -12.59375l1.765625 0l5.140625 11.6875l-0.84375 0l5.203125 -11.6875l1.6875 0l-5.609375 12.59375l-1.765625 0zm17.184204 0l0 -2.78125l-0.0625 -0.453125l0 -4.65625q0 -1.609375 -0.90625 -2.46875q-0.890625 -0.875 -2.6718597 -0.875q-1.21875 0 -2.328125 0.40625q-1.109375 0.40625 -1.875 1.078125l-0.765625 -1.265625q0.953125 -0.8125 2.296875 -1.25q1.34375 -0.453125 2.84375 -0.453125q2.4374847 0 3.7656097 1.21875q1.34375 1.203125 1.34375 3.671875l0 7.828125l-1.640625 0zm-4.3437347 0.125q-1.40625 0 -2.453125 -0.46875q-1.046875 -0.46875 -1.609375 -1.296875q-0.546875 -0.828125 -0.546875 -1.90625q0 -0.984375 0.46875 -1.78125q0.46875 -0.8125 1.53125 -1.296875q1.078125 -0.5 2.875 -0.5l4.3437347 0l0 1.265625l-4.2968597 0q-1.8125 0 -2.53125 0.65625q-0.703125 0.640625 -0.703125 1.609375q0 1.078125 0.84375 1.734375q0.84375 0.640625 2.34375 0.640625q1.4375 0 2.4843597 -0.65625q1.046875 -0.671875 1.53125 -1.921875l0.375 1.1875q-0.46875 1.234375 -1.65625 1.984375q-1.1874847 0.75 -2.9999847 0.75zm14.597427 0q-1.78125 0 -2.75 -0.953125q-0.953125 -0.96875 -0.953125 -2.71875l0 -11.84375l1.71875 0l0 11.75q0 1.09375 0.5625 1.703125q0.5625 0.59375 1.609375 0.59375q1.140625 0 1.875 -0.640625l0.609375 1.21875q-0.515625 0.453125 -1.21875 0.671875q-0.703125 0.21875 -1.453125 0.21875zm-5.953125 -11.3125l0 -1.40625l7.796875 0l0 1.40625l-7.796875 0zm11.7127075 11.1875l0 -12.59375l1.703125 0l0 12.59375l-1.703125 0zm0.875 -15.390625q-0.53125 0 -0.890625 -0.359375q-0.359375 -0.359375 -0.359375 -0.859375q0 -0.5 0.359375 -0.84375q0.359375 -0.359375 0.890625 -0.359375q0.53125 0 0.890625 0.34375q0.359375 0.328125 0.359375 0.84375q0 0.515625 -0.359375 0.875q-0.34375 0.359375 -0.890625 0.359375zm10.721619 15.515625q-1.828125 0 -3.28125 -0.828125q-1.453125 -0.828125 -2.296875 -2.28125q-0.828125 -1.453125 -0.828125 -3.328125q0 -1.890625 0.828125 -3.328125q0.84375 -1.453125 2.28125 -2.265625q1.4375 -0.8125 3.296875 -0.8125q1.875 0 3.3125 0.8125q1.453125 0.8125 2.28125 2.265625q0.828125 1.4375 0.828125 3.328125q0 1.875 -0.828125 3.328125q-0.828125 1.453125 -2.296875 2.28125q-1.453125 0.828125 -3.296875 0.828125zm0 -1.515625q1.359375 0 2.40625 -0.609375q1.0625 -0.609375 1.671875 -1.71875q0.625 -1.125 0.625 -2.59375q0 -1.484375 -0.625 -2.59375q-0.609375 -1.109375 -1.671875 -1.71875q-1.046875 -0.609375 -2.390625 -0.609375q-1.34375 0 -2.40625 0.609375q-1.046875 0.609375 -1.671875 1.71875q-0.625 1.109375 -0.625 2.59375q0 1.46875 0.625 2.59375q0.625 1.109375 1.671875 1.71875q1.0625 0.609375 2.390625 0.609375zm9.907349 1.390625l0 -12.59375l1.640625 0l0 3.453125l-0.265625 -0.65625q0.59375 -1.359375 1.90625 -2.140625q1.328125 -0.78125 3.15625 -0.78125q1.53125 0 2.6875 0.59375q1.171875 0.578125 1.828125 1.78125q0.65625 1.203125 0.65625 3.03125l0 7.3125l-1.703125 0l0 -7.15625q0 -1.984375 -1.0 -3.0q-0.984375 -1.03125 -2.78125 -1.03125q-1.34375 0 -2.34375 0.546875q-1.0 0.53125 -1.546875 1.5625q-0.53125 1.015625 -0.53125 2.453125l0 6.625l-1.703125 0z" fill-rule="nonzero"/><path fill="#000000" d="m37.08496 151.952l0 -16.796875l1.46875 0l7.671875 13.09375l-0.765625 0l7.609375 -13.09375l1.46875 0l0 16.796875l-1.703125 0l0 -14.140625l0.40625 0l-7.015625 12.0l-0.828125 0l-7.0625 -12.0l0.453125 0l0 14.140625l-1.703125 0zm27.701187 0.125q-1.828125 0 -3.28125 -0.828125q-1.453125 -0.828125 -2.296875 -2.28125q-0.828125 -1.453125 -0.828125 -3.328125q0 -1.890625 0.828125 -3.328125q0.84375 -1.453125 2.28125 -2.265625q1.4375 -0.8125 3.296875 -0.8125q1.875 0 3.3125 0.8125q1.453125 0.8125 2.28125 2.265625q0.828125 1.4375 0.828125 3.328125q0 1.875 -0.828125 3.328125q-0.828125 1.453125 -2.296875 2.28125q-1.453125 0.828125 -3.296875 0.828125zm0 -1.515625q1.359375 0 2.40625 -0.609375q1.0625 -0.609375 1.671875 -1.71875q0.625 -1.125 0.625 -2.59375q0 -1.484375 -0.625 -2.59375q-0.609375 -1.109375 -1.671875 -1.71875q-1.046875 -0.609375 -2.390625 -0.609375q-1.34375 0 -2.40625 0.609375q-1.046875 0.609375 -1.671875 1.71875q-0.625 1.109375 -0.625 2.59375q0 1.46875 0.625 2.59375q0.625 1.109375 1.671875 1.71875q1.0625 0.609375 2.390625 0.609375zm9.907333 1.390625l0 -12.59375l1.640625 0l0 3.453125l-0.265625 -0.65625q0.59375 -1.359375 1.90625 -2.140625q1.328125 -0.78125 3.15625 -0.78125q1.53125 0 2.6875 0.59375q1.171875 0.578125 1.828125 1.78125q0.65625 1.203125 0.65625 3.03125l0 7.3125l-1.703125 0l0 -7.15625q0 -1.984375 -1.0 -3.0q-0.984375 -1.03125 -2.78125 -1.03125q-1.34375 0 -2.34375 0.546875q-1.0 0.53125 -1.546875 1.5625q-0.53125 1.015625 -0.53125 2.453125l0 6.625l-1.703125 0zm16.223953 0l0 -12.59375l1.703125 0l0 12.59375l-1.703125 0zm0.875 -15.390625q-0.53125 0 -0.890625 -0.359375q-0.359375 -0.359375 -0.359375 -0.859375q0 -0.5 0.359375 -0.84375q0.359375 -0.359375 0.890625 -0.359375q0.53125 0 0.890625 0.34375q0.359375 0.328125 0.359375 0.84375q0 0.515625 -0.359375 0.875q-0.34375 0.359375 -0.890625 0.359375zm9.34935 15.515625q-1.78125 0 -2.75 -0.953125q-0.953125 -0.96875 -0.953125 -2.71875l0 -11.84375l1.71875 0l0 11.75q0 1.09375 0.5625 1.703125q0.5625 0.59375 1.609375 0.59375q1.140625 0 1.875 -0.640625l0.609375 1.21875q-0.515625 0.453125 -1.21875 0.671875q-0.703125 0.21875 -1.453125 0.21875zm-5.953125 -11.3125l0 -1.40625l7.796875 0l0 1.40625l-7.796875 0zm16.397354 11.3125q-1.828125 0 -3.28125 -0.828125q-1.453125 -0.828125 -2.296875 -2.28125q-0.828125 -1.453125 -0.828125 -3.328125q0 -1.890625 0.828125 -3.328125q0.84375 -1.453125 2.28125 -2.265625q1.4375 -0.8125 3.296875 -0.8125q1.875 0 3.3125 0.8125q1.453125 0.8125 2.28125 2.265625q0.828125 1.4375 0.828125 3.328125q0 1.875 -0.828125 3.328125q-0.828125 1.453125 -2.296875 2.28125q-1.453125 0.828125 -3.296875 0.828125zm0 -1.515625q1.359375 0 2.40625 -0.609375q1.0625 -0.609375 1.671875 -1.71875q0.625 -1.125 0.625 -2.59375q0 -1.484375 -0.625 -2.59375q-0.609375 -1.109375 -1.671875 -1.71875q-1.046875 -0.609375 -2.390625 -0.609375q-1.34375 0 -2.40625 0.609375q-1.046875 0.609375 -1.671875 1.71875q-0.625 1.109375 -0.625 2.59375q0 1.46875 0.625 2.59375q0.625 1.109375 1.671875 1.71875q1.0625 0.609375 2.390625 0.609375zm9.907333 1.390625l0 -12.59375l1.640625 0l0 3.421875l-0.171875 -0.59375q0.53125 -1.4375 1.765625 -2.1875q1.25 -0.765625 3.109375 -0.765625l0 1.65625q-0.109375 0 -0.203125 -0.015625q-0.09375 -0.015625 -0.1875 -0.015625q-1.984375 0 -3.125 1.21875q-1.125 1.21875 -1.125 3.4375l0 6.4375l-1.703125 0zm9.431976 0l0 -12.59375l1.703125 0l0 12.59375l-1.703125 0zm0.875 -15.390625q-0.53125 0 -0.890625 -0.359375q-0.359375 -0.359375 -0.359375 -0.859375q0 -0.5 0.359375 -0.84375q0.359375 -0.359375 0.890625 -0.359375q0.53125 0 0.890625 0.34375q0.359375 0.328125 0.359375 0.84375q0 0.515625 -0.359375 0.875q-0.34375 0.359375 -0.890625 0.359375zm5.5809784 15.390625l0 -12.59375l1.640625 0l0 3.453125l-0.265625 -0.65625q0.59375 -1.359375 1.90625 -2.140625q1.328125 -0.78125 3.15625 -0.78125q1.53125 0 2.6875 0.59375q1.171875 0.578125 1.828125 1.78125q0.65625 1.203125 0.65625 3.03125l0 7.3125l-1.703125 0l0 -7.15625q0 -1.984375 -1.0 -3.0q-0.984375 -1.03125 -2.78125 -1.03125q-1.34375 0 -2.34375 0.546875q-1.0 0.53125 -1.546875 1.5625q-0.53125 1.015625 -0.53125 2.453125l0 6.625l-1.703125 0zm21.598953 4.78125q-1.71875 0 -3.3125 -0.515625q-1.578125 -0.5 -2.5625 -1.4375l0.859375 -1.296875q0.890625 0.796875 2.1875 1.265625q1.3125 0.46875 2.78125 0.46875q2.40625 0 3.53125 -1.125q1.125 -1.109375 1.125 -3.453125l0 -3.15625l0.234375 -2.15625l-0.15625 -2.15625l0 -3.8125l1.625 0l0 11.0625q0 3.265625 -1.59375 4.78125q-1.59375 1.53125 -4.71875 1.53125zm-0.3125 -5.265625q-1.796875 0 -3.234375 -0.78125q-1.4375 -0.78125 -2.265625 -2.171875q-0.828125 -1.390625 -0.828125 -3.1875q0 -1.796875 0.828125 -3.171875q0.828125 -1.390625 2.265625 -2.15625q1.4375 -0.765625 3.234375 -0.765625q1.6875 0 3.03125 0.703125q1.34375 0.6875 2.125 2.0625q0.796875 1.359375 0.796875 3.328125q0 1.96875 -0.796875 3.34375q-0.78125 1.359375 -2.125 2.078125q-1.34375 0.71875 -3.03125 0.71875zm0.171875 -1.5q1.390625 0 2.46875 -0.59375q1.078125 -0.59375 1.703125 -1.625q0.625 -1.046875 0.625 -2.421875q0 -1.359375 -0.625 -2.390625q-0.625 -1.046875 -1.703125 -1.625q-1.078125 -0.59375 -2.46875 -0.59375q-1.375 0 -2.46875 0.59375q-1.078125 0.578125 -1.703125 1.625q-0.609375 1.03125 -0.609375 2.390625q0 1.375 0.609375 2.421875q0.625 1.03125 1.703125 1.625q1.09375 0.59375 2.46875 0.59375zm17.852936 1.984375l0 -16.796875l6.296875 0q2.125 0 3.65625 0.6875q1.546875 0.671875 2.375 1.96875q0.828125 1.28125 0.828125 3.09375q0 1.78125 -0.828125 3.0625q-0.828125 1.28125 -2.375 1.984375q-1.53125 0.703125 -3.65625 0.703125l-5.3125 0l0.796875 -0.84375l0 6.140625l-1.78125 0zm1.78125 -6.0l-0.796875 -0.859375l5.25 0q2.53125 0 3.828125 -1.09375q1.3125 -1.09375 1.3125 -3.09375q0 -2.015625 -1.3125 -3.109375q-1.296875 -1.109375 -3.828125 -1.109375l-5.25 0l0.796875 -0.84375l0 10.109375zm14.539322 6.0l0 -12.59375l1.640625 0l0 3.421875l-0.171875 -0.59375q0.53125 -1.4375 1.765625 -2.1875q1.25 -0.765625 3.109375 -0.765625l0 1.65625q-0.109375 0 -0.203125 -0.015625q-0.09375 -0.015625 -0.1875 -0.015625q-1.984375 0 -3.125 1.21875q-1.125 1.21875 -1.125 3.4375l0 6.4375l-1.703125 0zm14.452606 0.125q-1.828125 0 -3.28125 -0.828125q-1.453125 -0.828125 -2.296875 -2.28125q-0.828125 -1.453125 -0.828125 -3.328125q0 -1.890625 0.828125 -3.328125q0.84375 -1.453125 2.28125 -2.265625q1.4375 -0.8125 3.296875 -0.8125q1.875 0 3.3125 0.8125q1.453125 0.8125 2.28125 2.265625q0.828125 1.4375 0.828125 3.328125q0 1.875 -0.828125 3.328125q-0.828125 1.453125 -2.296875 2.28125q-1.453125 0.828125 -3.296875 0.828125zm0 -1.515625q1.359375 0 2.40625 -0.609375q1.0625 -0.609375 1.671875 -1.71875q0.625 -1.125 0.625 -2.59375q0 -1.484375 -0.625 -2.59375q-0.609375 -1.109375 -1.671875 -1.71875q-1.046875 -0.609375 -2.390625 -0.609375q-1.34375 0 -2.40625 0.609375q-1.046875 0.609375 -1.671875 1.71875q-0.625 1.109375 -0.625 2.59375q0 1.46875 0.625 2.59375q0.625 1.109375 1.671875 1.71875q1.0625 0.609375 2.390625 0.609375zm15.282333 6.171875q-1.71875 0 -3.3125 -0.515625q-1.578125 -0.5 -2.5625 -1.4375l0.859375 -1.296875q0.890625 0.796875 2.1875 1.265625q1.3125 0.46875 2.78125 0.46875q2.40625 0 3.53125 -1.125q1.125 -1.109375 1.125 -3.453125l0 -3.15625l0.234375 -2.15625l-0.15625 -2.15625l0 -3.8125l1.625 0l0 11.0625q0 3.265625 -1.59375 4.78125q-1.59375 1.53125 -4.71875 1.53125zm-0.3125 -5.265625q-1.796875 0 -3.234375 -0.78125q-1.4375 -0.78125 -2.265625 -2.171875q-0.828125 -1.390625 -0.828125 -3.1875q0 -1.796875 0.828125 -3.171875q0.828125 -1.390625 2.265625 -2.15625q1.4375 -0.765625 3.234375 -0.765625q1.6875 0 3.03125 0.703125q1.34375 0.6875 2.125 2.0625q0.796875 1.359375 0.796875 3.328125q0 1.96875 -0.796875 3.34375q-0.78125 1.359375 -2.125 2.078125q-1.34375 0.71875 -3.03125 0.71875zm0.171875 -1.5q1.390625 0 2.46875 -0.59375q1.078125 -0.59375 1.703125 -1.625q0.625 -1.046875 0.625 -2.421875q0 -1.359375 -0.625 -2.390625q-0.625 -1.046875 -1.703125 -1.625q-1.078125 -0.59375 -2.46875 -0.59375q-1.375 0 -2.46875 0.59375q-1.078125 0.578125 -1.703125 1.625q-0.609375 1.03125 -0.609375 2.390625q0 1.375 0.609375 2.421875q0.625 1.03125 1.703125 1.625q1.09375 0.59375 2.46875 0.59375zm11.205582 1.984375l0 -12.59375l1.640625 0l0 3.421875l-0.171875 -0.59375q0.53125 -1.4375 1.765625 -2.1875q1.25 -0.765625 3.109375 -0.765625l0 1.65625q-0.109375 0 -0.203125 -0.015625q-0.09375 -0.015625 -0.1875 -0.015625q-1.984375 0 -3.125 1.21875q-1.125 1.21875 -1.125 3.4375l0 6.4375l-1.703125 0zm16.53061 0l0 -2.78125l-0.0625 -0.453125l0 -4.65625q0 -1.609375 -0.90625 -2.46875q-0.890625 -0.875 -2.671875 -0.875q-1.21875 0 -2.328125 0.40625q-1.109375 0.40625 -1.875 1.078125l-0.765625 -1.265625q0.953125 -0.8125 2.296875 -1.25q1.34375 -0.453125 2.84375 -0.453125q2.4375 0 3.765625 1.21875q1.34375 1.203125 1.34375 3.671875l0 7.828125l-1.640625 0zm-4.34375 0.125q-1.40625 0 -2.453125 -0.46875q-1.046875 -0.46875 -1.609375 -1.296875q-0.546875 -0.828125 -0.546875 -1.90625q0 -0.984375 0.46875 -1.78125q0.46875 -0.8125 1.53125 -1.296875q1.078125 -0.5 2.875 -0.5l4.34375 0l0 1.265625l-4.296875 0q-1.8125 0 -2.53125 0.65625q-0.703125 0.640625 -0.703125 1.609375q0 1.078125 0.84375 1.734375q0.84375 0.640625 2.34375 0.640625q1.4375 0 2.484375 -0.65625q1.046875 -0.671875 1.53125 -1.921875l0.375 1.1875q-0.46875 1.234375 -1.65625 1.984375q-1.1875 0.75 -3.0 0.75zm10.613083 -0.125l0 -12.59375l1.640625 0l0 3.40625l-0.265625 -0.609375q0.5625 -1.359375 1.84375 -2.140625q1.296875 -0.78125 3.046875 -0.78125q1.84375 0 3.140625 0.921875q1.296875 0.921875 1.6875 2.765625l-0.671875 -0.25q0.546875 -1.546875 1.953125 -2.484375q1.40625 -0.953125 3.375 -0.953125q1.53125 0 2.671875 0.59375q1.140625 0.578125 1.765625 1.78125q0.640625 1.203125 0.640625 3.03125l0 7.3125l-1.703125 0l0 -7.15625q0 -1.984375 -0.953125 -3.0q-0.9375 -1.03125 -2.671875 -1.03125q-1.296875 0 -2.25 0.546875q-0.9375 0.53125 -1.453125 1.5625q-0.515625 1.015625 -0.515625 2.453125l0 6.625l-1.703125 0l0 -7.15625q0 -1.984375 -0.96875 -3.0q-0.953125 -1.03125 -2.6875 -1.03125q-1.265625 0 -2.234375 0.546875q-0.953125 0.53125 -1.46875 1.5625q-0.515625 1.015625 -0.515625 2.453125l0 6.625l-1.703125 0z" fill-rule="nonzero"/><path fill="#6aa84f" d="m43.071037 20.65502l0 0c5.739216 -0.7769985 14.290634 11.218864 19.100128 26.793512c4.809494 15.574642 4.0558014 28.830269 -1.6834183 29.60727c2.9596405 -5.0091476 2.354519 -16.629295 -1.5192223 -29.173683c-3.8737411 -12.544392 -10.205856 -23.389193 -15.897488 -27.227098z" fill-rule="evenodd"/><path stroke="#434343" stroke-width="1.0" stroke-linejoin="round" stroke-linecap="butt" d="m43.071037 20.65502l0 0c5.739216 -0.7769985 14.290634 11.218864 19.100128 26.793512c4.809494 15.574642 4.0558014 28.830269 -1.6834183 29.60727c2.9596405 -5.0091476 2.354519 -16.629295 -1.5192223 -29.173683c-3.8737411 -12.544392 -10.205856 -23.389193 -15.897488 -27.227098z" fill-rule="evenodd"/><path fill="#93c47d" d="m41.683193 21.512838l0 0c5.80674 -0.54727745 14.101879 11.778818 18.52771 27.531107c4.425831 15.752289 3.3063812 28.965698 -2.5003586 29.512978l0 0c3.067295 -4.96006 2.7486267 -16.56485 -0.8018913 -29.201744c-3.5505142 -12.636894 -9.60112 -23.701454 -15.22546 -27.84234z" fill-rule="evenodd"/><path stroke="#434343" stroke-width="1.0" stroke-linejoin="round" stroke-linecap="butt" d="m41.683193 21.512838l0 0c5.80674 -0.54727745 14.101879 11.778818 18.52771 27.531107c4.425831 15.752289 3.3063812 28.965698 -2.5003586 29.512978l0 0c3.067295 -4.96006 2.7486267 -16.56485 -0.8018913 -29.201744c-3.5505142 -12.636894 -9.60112 -23.701454 -15.22546 -27.84234z" fill-rule="evenodd"/><path fill="#6aa84f" d="m82.27609 5.827433l0 0c-6.528702 0.9017644 -15.0887985 17.796213 -19.119514 37.734802c-4.0307198 19.938595 -2.0057068 35.37099 4.5229874 34.469227c-3.7758522 -4.983322 -4.1262856 -18.913162 -0.8797989 -34.972435c3.2464905 -16.059273 9.410851 -30.888958 15.476326 -37.231594z" fill-rule="evenodd"/><path stroke="#434343" stroke-width="1.0" stroke-linejoin="round" stroke-linecap="butt" d="m82.27609 5.827433l0 0c-6.528702 0.9017644 -15.0887985 17.796213 -19.119514 37.734802c-4.0307198 19.938595 -2.0057068 35.37099 4.5229874 34.469227c-3.7758522 -4.983322 -4.1262856 -18.913162 -0.8797989 -34.972435c3.2464905 -16.059273 9.410851 -30.888958 15.476326 -37.231594z" fill-rule="evenodd"/><path fill="#93c47d" d="m83.914314 6.4013896l0 0c-6.584305 1.1947689 -14.826637 18.398348 -18.40976 38.42527c-3.5831184 20.026924 -1.150177 35.293396 5.434128 34.098633l0 0c-3.8926773 -4.891144 -4.5641556 -18.711971 -1.689682 -34.778088c2.8744736 -16.066116 8.7024765 -31.066322 14.665314 -37.745815z" fill-rule="evenodd"/><path stroke="#434343" stroke-width="1.0" stroke-linejoin="round" stroke-linecap="butt" d="m83.914314 6.4013896l0 0c-6.584305 1.1947689 -14.826637 18.398348 -18.40976 38.42527c-3.5831184 20.026924 -1.150177 35.293396 5.434128 34.098633l0 0c-3.8926773 -4.891144 -4.5641556 -18.711971 -1.689682 -34.778088c2.8744736 -16.066116 8.7024765 -31.066322 14.665314 -37.745815z" fill-rule="evenodd"/><path fill="#783f04" d="m52.353584 77.04464l0 0c-0.22727203 -0.63921356 0.51890564 -1.2719955 1.9219017 -1.629837c1.4029961 -0.3578415 3.216755 -0.37797546 4.671631 -0.051872253l0 0c0.5153618 -0.37166595 1.458622 -0.628273 2.544468 -0.69220734c1.085846 -0.063934326 2.1867332 0.07231903 2.9696732 0.36753845l0 0c0.43901825 -0.3369751 1.3010483 -0.563385 2.2801895 -0.59887695c0.97914124 -0.035491943 1.936821 0.124946594 2.5332108 0.4243927l0 0c0.79315186 -0.357193 2.0550919 -0.50759125 3.2397537 -0.38610077c1.1846619 0.12148285 2.079277 0.4930191 2.2967453 0.9538498l0 0c0.971756 0.10144806 1.7812042 0.35933685 2.2192154 0.70703125c0.43800354 0.3476944 0.4616089 0.75109863 0.064712524 1.1059799l0 0c0.9568863 0.4766388 1.1807327 1.1117554 0.5879898 1.6683426c-0.5927429 0.5565796 -1.9130249 0.951004 -3.4681244 1.0360794c-0.01096344 0.5223694 -0.7595062 1.0016861 -1.9571152 1.253212c-1.197609 0.25151825 -2.6572723 0.23596191 -3.816368 -0.040672302l0 0c-0.49371338 0.6256256 -1.8833466 1.0859604 -3.5685349 1.1821136c-1.6851883 0.09615326 -3.363823 -0.1891098 -4.3106728 -0.73254395l0 0c-1.1606407 0.2678604 -2.5533104 0.3450241 -3.8638535 0.21408081c-1.3105392 -0.1309433 -2.4285622 -0.45895386 -3.10186 -0.91004944l0 0c-1.1860275 0.053115845 -2.3327522 -0.18206024 -2.8710594 -0.5888138c-0.5383072 -0.40675354 -0.35359955 -0.89849854 0.4624443 -1.2311783l0 0c-1.0579643 -0.2383194 -1.597805 -0.71121216 -1.3380089 -1.1720963c0.25979233 -0.4608841 1.2603493 -0.80532074 2.4799194 -0.8536835z" fill-rule="evenodd"/><path fill="#000000" fill-opacity="0.0" d="m51.188232 79.09506l0 0c0.49925613 0.112464905 1.0760155 0.16348267 1.6528397 0.14620209m0.75551224 1.6738281c0.2480545 -0.011108398 0.49119568 -0.03463745 0.72315216 -0.06996918m6.242214 0.7659149c-0.17446518 -0.1001358 -0.32053757 -0.20713043 -0.43572617 -0.31917572m8.315235 -0.13041687l0 0c0.0900116 -0.11406708 0.14833069 -0.23146057 0.17398834 -0.35022736m5.5992737 -0.86227417c0.011672974 -0.5561447 -0.8136749 -1.0653534 -2.1215286 -1.3089142m5.0016403 -1.3954468c-0.21180725 0.18937683 -0.5351486 0.3573761 -0.94467163 0.4908142m-1.3390579 -2.3038712l0 0c0.036087036 0.07647705 0.05278778 0.15409851 0.049873352 0.23179626m-5.586281 -0.7995224l0 0c-0.19785309 0.0891037 -0.3608551 0.18867493 -0.48394012 0.29561615m-4.329506 -0.121170044l0 0c-0.10543823 0.08093262 -0.18417358 0.16657257 -0.23439026 0.25494385m-5.279831 0.069732666l0 0c0.3078537 0.06900787 0.5926552 0.15206146 0.848156 0.24733734m-7.441601 1.4343796l0 0c0.03132248 0.08810425 0.080818176 0.1751175 0.14801788 0.26023102" fill-rule="evenodd"/></g></svg>